PathFileType	3	(X/Y/Z)	D:\VICON_DB\Goncalves\Pilot01\09-03-2026\bw_sq_120_01.trc
DataRate	CameraRate	NumFrames	NumMarkers	Units	OrigDataRate	OrigDataStartFrame	OrigNumFrames
200.0	200.0	11	34	mm	200.0	366	730	
Frame#	Time	LASI			RASI			LPSI			RPSI			LTHI			LTHAP			LTHAD			LKNE			LKNM			LTIB			LTIAP			LTIAD			LANK			LMED			LHEE			LTOE			LFMH			LSMH			LVMH			RTHI			RTHAP			RTHAD			RKNE			RKNM			RTIB			RTIAP			RTIAD			RANK			RMED			RHEE			RTOE			RFMH			RSMH			RVMH			
		X1	Y1	Z1	X2	Y2	Z2	X3	Y3	Z3	X4	Y4	Z4	X5	Y5	Z5	X6	Y6	Z6	X7	Y7	Z7	X8	Y8	Z8	X9	Y9	Z9	X10	Y10	Z10	X11	Y11	Z11	X12	Y12	Z12	X13	Y13	Z13	X14	Y14	Z14	X15	Y15	Z15	X16	Y16	Z16	X17	Y17	Z17	X18	Y18	Z18	X19	Y19	Z19	X20	Y20	Z20	X21	Y21	Z21	X22	Y22	Z22	X23	Y23	Z23	X24	Y24	Z24	X25	Y25	Z25	X26	Y26	Z26	X27	Y27	Z27	X28	Y28	Z28	X29	Y29	Z29	X30	Y30	Z30	X31	Y31	Z31	X32	Y32	Z32	X33	Y33	Z33	X34	Y34	Z34	
366	1.825	278.54977	488.5589	-1096.8344	287.97342	498.10385	-1359.4082				465.81497	565.67493	-1258.2505	280.4436	503.578	-1031.6633	324.00598	502.52133	-1038.0928	255.06786	466.34543	-966.4425	123.0144	406.30203	-896.15112				179.78389	243.39685	-891.65143	71.378937	287.98151	-917.62268	150.02759	203.43954	-916.36395	280.98715	68.396935	-949.19159				314.04651	70.420074	-1006.2542	202.22081	70.41729	-953.80359	145.47952	46.085945	-973.59338				171.15256	27.495731	-897.59076	224.75624	457.07217	-1462.7003	296.97522	509.65726	-1407.2341	232.68855	503.92865	-1397.2574	101.35115	401.25769	-1487.3497				123.46887	243.75912	-1499.072	47.884281	270.90399	-1458.0139	100.93053	204.11142	-1449.5	271.05099	63.766525	-1453.0621				300.71323	65.507355	-1402.599	181.55638	68.046951	-1448.0416	130.49658	49.122631	-1433.1838				156.80896	20.387447	-1502.5784
367	1.83	278.80942	488.14713	-1096.9366	288.03812	497.62906	-1359.4288				466.02246	565.0166	-1258.4948	280.76871	503.2493	-1031.8284	324.34018	502.12717	-1038.2269	255.35893	466.12744	-966.59436	123.21765	406.3472	-896.21753				179.87968	243.43761	-891.6933	71.469574	288.05411	-917.64081	150.11205	203.49069	-916.40442	281.01654	68.394936	-949.21417				314.07587	70.407661	-1006.2866	202.24411	70.435616	-953.81976	145.48988	46.103043	-973.59796				171.19289	27.542055	-897.62109	224.63759	456.69937	-1462.5376	297.01324	509.17947	-1407.2418	232.73526	503.55185	-1397.1194	101.11942	401.08493	-1486.9846				123.30187	243.74019	-1498.7628	47.712044	270.81607	-1457.6293	100.81811	204.04471	-1449.2074	271.03479	63.811882	-1452.9901				300.70288	65.5047	-1402.5369	181.54143	68.060379	-1447.9528	130.49423	49.102688	-1433.1157				156.80652	20.476961	-1502.5236
368	1.835	279.05655	487.74936	-1097.0328	288.09225	497.17178	-1359.4474				466.21918	564.37891	-1258.7288	281.08838	502.93005	-1031.9825	324.66055	501.73587	-1038.3547	255.65106	465.91611	-966.73181	123.43053	406.39429	-896.26233				179.98523	243.4782	-891.71912	71.568512	288.12866	-917.63501	150.20415	203.54189	-916.42664	281.04675	68.391296	-949.23212				314.10455	70.397621	-1006.3155	202.26883	70.453384	-953.82739	145.50087	46.121101	-973.59814				171.23135	27.583363	-897.64642	224.51263	456.34244	-1462.382	297.04129	508.72122	-1407.2456	232.76938	503.18951	-1396.9849	100.8872	400.91718	-1486.6345				123.13406	243.71648	-1498.4667	47.539612	270.72675	-1457.2584	100.7041	203.97902	-1448.9249	271.01721	63.856869	-1452.9187				300.68994	65.503036	-1402.4747	181.52597	68.072754	-1447.8645	130.49025	49.08284	-1433.0502				156.80263	20.566235	-1502.4695
369	1.84	279.29034	487.36697	-1097.1196	288.13593	496.73105	-1359.4636				466.40576	563.7597	-1258.9502	281.40222	502.62057	-1032.1226	324.96741	501.34729	-1038.474	255.94333	465.7106	-966.85229	123.65196	406.44263	-896.28394				180.09988	243.51833	-891.7276	71.675217	288.20511	-917.604	150.30334	203.59308	-916.42975	281.07727	68.385948	-949.24524				314.13217	70.390274	-1006.34	202.2943	70.470306	-953.82654	145.51207	46.139935	-973.59338				171.26724	27.61891	-897.66632	224.38362	456.00137	-1462.2368	297.06033	508.2814	-1407.2458	232.7915	502.84045	-1396.8561	100.65698	400.75528	-1486.3064				122.96705	243.68738	-1498.1885	47.368599	270.63626	-1456.9076	100.58969	203.91408	-1448.6567	270.9985	63.900738	-1452.8491				300.67435	65.502441	-1402.4136	181.50999	68.083832	-1447.7786	130.48474	49.063408	-1432.9885				156.79713	20.654076	-1502.4171
370	1.845	279.5105	487.00122	-1097.1947	288.16925	496.30563	-1359.4777				466.58261	563.15717	-1259.158	281.70993	502.32147	-1032.2457	325.26157	500.96201	-1038.5818	256.23492	465.51044	-966.95349	123.88069	406.49179	-896.28064				180.2229	243.55777	-891.71832	71.789192	288.28336	-917.54694	150.40894	203.64412	-916.41315	281.10754	68.37896	-949.25336				314.15833	70.385841	-1006.3604	202.3199	70.486153	-953.81732	145.52309	46.159359	-973.5835				171.29973	27.648109	-897.68073	224.25307	455.67599	-1462.105	297.07147	507.85892	-1407.2428	232.80246	502.50357	-1396.7356	100.43139	400.60022	-1486.0066				122.8027	243.6525	-1497.9329	47.200741	270.54507	-1456.5828	100.47611	203.84952	-1448.4073	270.97894	63.942841	-1452.7825				300.65616	65.503036	-1402.3545	181.49344	68.093544	-1447.6962	130.47798	49.044662	-1432.9314				156.79015	20.739279	-1502.3669
371	1.85	279.71777	486.65311	-1097.2554	288.19269	495.8945	-1359.4894				466.7504	562.56995	-1259.351	282.01157	502.03317	-1032.3495	325.54425	500.58115	-1038.676	256.52505	465.31528	-967.03387	124.11546	406.54114	-896.25153				180.35333	243.59645	-891.69073	71.909813	288.36316	-917.46344	150.52008	203.69502	-916.37665	281.13721	68.370445	-949.25653				314.18262	70.384506	-1006.3765	202.34517	70.500786	-953.79993	145.53352	46.179298	-973.5683				171.32817	27.670597	-897.68921	224.12383	455.36572	-1461.9894	297.07593	507.4523	-1407.2366	232.80356	502.17776	-1396.6256	100.21313	400.45282	-1485.7411				122.64303	243.61168	-1497.7037	47.037827	270.45367	-1456.2897	100.36472	203.78506	-1448.1813	270.95868	63.982567	-1452.7198				300.63544	65.504982	-1402.2981	181.47623	68.101997	-1447.619	130.47023	49.026871	-1432.8799				156.78185	20.820595	-1502.3196
372	1.855	279.91403	486.32315	-1097.3	288.20663	495.49637	-1359.4989				466.90945	561.99713	-1259.5284	282.30731	501.75607	-1032.4318	325.81708	500.20612	-1038.7555	256.81326	465.125	-967.09174	124.35502	406.59036	-896.19611				180.49023	243.63434	-891.64496	72.036469	288.44437	-917.3537	150.63589	203.74583	-916.32062	281.16571	68.360573	-949.2547				314.20474	70.386261	-1006.3881	202.36972	70.51413	-953.77484	145.54298	46.199718	-973.54785				171.35217	27.686255	-897.69208	223.99872	455.06982	-1461.8921	297.07513	507.06024	-1407.2277	232.79654	501.86218	-1396.5287	100.00491	400.31387	-1485.5154				122.49019	243.56506	-1497.5044	46.881676	270.36276	-1456.0331	100.25684	203.72054	-1447.9821	270.93823	64.019371	-1452.6616				300.61224	65.508423	-1402.2451	181.45834	68.109406	-1447.548	130.46187	49.010246	-1432.8344				156.7726	20.896774	-1502.2753
373	1.86	280.10181	486.01108	-1097.3282	288.21173	495.11011	-1359.5062				467.06021	561.43762	-1259.691	282.59756	501.49066	-1032.4913	326.082	499.83841	-1038.8186	257.09897	464.93961	-967.1264	124.59825	406.6391	-896.11444				180.63263	243.67146	-891.5816	72.168411	288.52664	-917.21844	150.75548	203.79655	-916.24548	281.19293	68.349556	-949.24792				314.22461	70.3909	-1006.3952	202.39323	70.526215	-953.74274	145.55113	46.220646	-973.52246				171.37149	27.695236	-897.68951	223.88072	454.78751	-1461.8148	297.0705	506.68121	-1407.2167	232.78355	501.55597	-1396.4465	99.809464	400.18408	-1485.3339				122.34626	243.51315	-1497.3376	46.734116	270.27319	-1455.8179	100.15391	203.65605	-1447.8138	270.91779	64.052765	-1452.6088				300.5867	65.513496	-1402.1965	181.43985	68.116104	-1447.4847	130.45316	48.994968	-1432.7957				156.76279	20.966637	-1502.2347
374	1.865	280.28384	485.71637	-1097.3398	288.20871	494.73465	-1359.5121				467.20261	560.89062	-1259.8394	282.88269	501.23691	-1032.5278	326.34073	499.4798	-1038.865	257.38187	464.75919	-967.13776	124.84412	406.68698	-896.00708				180.77957	243.70775	-891.50146	72.304886	288.60962	-917.0589	150.87794	203.84735	-916.1521	281.21854	68.337585	-949.23645				314.24188	70.39798	-1006.3978	202.4155	70.537117	-953.7041	145.55777	46.242092	-973.49268				171.38608	27.697943	-897.68188	223.77264	454.51801	-1461.759	297.06375	506.31393	-1407.2041	232.76701	501.25861	-1396.3806	99.629486	400.06369	-1485.2004				122.21331	243.45682	-1497.2061	46.596924	270.18591	-1455.6472	100.05732	203.59187	-1447.6792	270.8978	64.082268	-1452.5618				300.55914	65.520294	-1402.1527	181.42093	68.122337	-1447.4302	130.44444	48.981163	-1432.7639				156.75278	21.029158	-1502.1985
375	1.87	280.46225	485.43811	-1097.3348	288.19855	494.36902	-1359.5167				467.33655	560.35498	-1259.9751	283.16293	500.99509	-1032.541	326.59494	499.1319	-1038.8945	257.66165	464.5838	-967.12573	125.09174	406.7338	-895.87469				180.93013	243.74313	-891.4057	72.44516	288.69287	-916.87646	151.00244	203.89828	-916.04175	281.24252	68.324905	-949.2204				314.25665	70.406898	-1006.3961	202.4364	70.546989	-953.66003	145.56284	46.264065	-973.45886				171.39615	27.694969	-897.66986	223.67732	454.26065	-1461.7264	297.0564	505.95718	-1407.191	232.74945	500.96957	-1396.3325	99.467606	399.95261	-1485.1168				122.09325	243.39725	-1497.1119	46.471779	270.10202	-1455.5244	99.968483	203.52853	-1447.5804	270.87869	64.107414	-1452.5206				300.52972	65.528847	-1402.1136	181.40198	68.128128	-1447.3849	130.43593	48.968887	-1432.74				156.74297	21.083462	-1502.1671
376	1.875	280.63843	485.17523	-1097.3141	288.18237	494.01248	-1359.5204				467.46173	559.82971	-1260.0997	283.43832	500.76501	-1032.5319	326.84598	498.79617	-1038.908	257.93814	464.4137	-967.09119	125.34037	406.77917	-895.71869				181.08345	243.7775	-891.29547	72.588623	288.776	-916.67303	151.12822	203.94936	-915.91547	281.26498	68.311722	-949.20044				314.26883	70.417076	-1006.3898	202.45586	70.55603	-953.61121	145.5663	46.286552	-973.42194				171.40215	27.68704	-897.65399	223.59749	454.01447	-1461.7178	297.05026	505.61017	-1407.1779	232.73332	500.68851	-1396.3031	99.326332	399.85062	-1485.0847				121.98785	243.3356	-1497.0565	46.360252	270.02271	-1455.4518	99.888756	203.46669	-1447.5194	270.86084	64.127762	-1452.4856				300.49878	65.539093	-1402.0803	181.38356	68.13343	-1447.3496	130.4279	48.958176	-1432.7239				156.7336	21.128809	-1502.1414
